<svg xmlns="http://www.w3.org/2000/svg" width="150" viewBox="0 0 150 150" height="150" version="1.0"><defs><clipPath id="a"><path d="M 72 35 L 135.34375 35 L 135.34375 109.878906 L 72 109.878906 Z M 72 35"/></clipPath><clipPath id="b"><path d="M 7.09375 35 L 71 35 L 71 109.878906 L 7.09375 109.878906 Z M 7.09375 35"/></clipPath><clipPath id="c"><path d="M 61 2.628906 L 82 2.628906 L 82 43 L 61 43 Z M 61 2.628906"/></clipPath></defs><g clip-path="url(#a)"><path d="M 73.820312 62.707031 C 99.902344 37.957031 127.464844 40.152344 127.464844 40.152344 C 108.847656 62.078125 99.808594 94.222656 99.808594 94.222656 C 77.148438 95.296875 72.203125 109.867188 72.203125 109.867188 C 83.714844 97.675781 104.9375 100.007812 104.9375 100.007812 C 112.671875 68.980469 135.332031 36.882812 135.332031 36.882812 C 99.539062 28.09375 73.820312 62.707031 73.820312 62.707031"/></g><path d="M 109.925781 57.773438 C 88.074219 61.003906 76.339844 72.03125 76.339844 72.03125 C 89.421875 64.765625 108.171875 64.363281 108.171875 64.363281 L 109.925781 57.773438"/><path d="M 103.925781 69.40625 C 86.199219 72.027344 76.675781 80.972656 76.675781 80.972656 C 87.289062 75.082031 102.503906 74.753906 102.503906 74.753906 L 103.925781 69.40625"/><path d="M 98.988281 85.976562 L 100.226562 81.3125 C 84.765625 83.59375 76.460938 91.398438 76.460938 91.398438 C 85.722656 86.261719 98.988281 85.976562 98.988281 85.976562"/><g clip-path="url(#b)"><path d="M 42.613281 94.222656 C 42.613281 94.222656 33.574219 62.078125 14.960938 40.152344 C 14.960938 40.152344 42.519531 37.957031 68.601562 62.707031 C 68.601562 62.707031 42.882812 28.09375 7.089844 36.882812 C 7.089844 36.882812 29.75 68.980469 37.488281 100.007812 C 37.488281 100.007812 58.707031 97.675781 70.21875 109.867188 C 70.21875 109.867188 65.277344 95.296875 42.613281 94.222656"/></g><path d="M 32.496094 57.773438 L 34.25 64.363281 C 34.25 64.363281 53 64.765625 66.085938 72.03125 C 66.085938 72.03125 54.347656 61.003906 32.496094 57.773438"/><path d="M 39.917969 74.753906 C 39.917969 74.753906 55.132812 75.082031 65.746094 80.972656 C 65.746094 80.972656 56.226562 72.027344 38.5 69.40625 L 39.917969 74.753906"/><path d="M 65.964844 91.398438 C 65.964844 91.398438 57.660156 83.59375 42.195312 81.3125 L 43.433594 85.976562 C 43.433594 85.976562 56.703125 86.261719 65.964844 91.398438"/><path fill="#7ED957" d="M 103.660156 20.964844 C 80.421875 21.632812 77.972656 43.472656 77.972656 43.472656 C 100.769531 41.476562 103.660156 20.964844 103.660156 20.964844"/><path fill="#7ED957" d="M 64.449219 43.472656 C 64.449219 43.472656 62.003906 21.632812 38.761719 20.964844 C 38.761719 20.964844 41.65625 41.476562 64.449219 43.472656"/><g clip-path="url(#c)"><path fill="#7ED957" d="M 71.214844 2.632812 L 71.214844 2.628906 L 71.210938 2.632812 C 71.144531 2.695312 49.085938 23.144531 71.210938 42.976562 C 71.214844 42.980469 71.214844 42.980469 71.214844 42.980469 L 71.214844 42.976562 C 93.335938 23.144531 71.28125 2.695312 71.214844 2.632812"/></g><g><g><g><path d="M 16.703125 0 L 13.125 0 L 10.59375 -9.4375 L 8.03125 0 L 4.4375 0 L -0.015625 -13.640625 L 3.6875 -13.640625 L 6.359375 -3.609375 L 8.96875 -13.640625 L 12.359375 -13.640625 L 15.015625 -3.609375 L 17.65625 -13.640625 L 21.203125 -13.640625 Z M 16.703125 0" transform="translate(43.762 125.996)"/></g></g></g><g><g><g><path d="M 1.359375 -13.640625 L 7.3125 -13.640625 C 9.050781 -13.640625 10.398438 -13.226562 11.359375 -12.40625 C 12.316406 -11.582031 12.796875 -10.410156 12.796875 -8.890625 C 12.796875 -7.285156 12.316406 -6.039062 11.359375 -5.15625 C 10.398438 -4.28125 9.050781 -3.84375 7.3125 -3.84375 L 4.828125 -3.84375 L 4.828125 0 L 1.359375 0 Z M 4.828125 -10.90625 L 4.828125 -6.5625 L 7.125 -6.5625 C 7.894531 -6.5625 8.488281 -6.75 8.90625 -7.125 C 9.320312 -7.507812 9.53125 -8.054688 9.53125 -8.765625 C 9.53125 -9.460938 9.320312 -9.992188 8.90625 -10.359375 C 8.488281 -10.722656 7.894531 -10.90625 7.125 -10.90625 Z M 4.828125 -10.90625" transform="translate(68.675 125.996)"/></g></g></g><g><g><g><path d="M 6.609375 -13.796875 C 8.648438 -13.796875 10.441406 -13.289062 11.984375 -12.28125 L 10.671875 -9.5625 C 9.960938 -9.976562 9.195312 -10.316406 8.375 -10.578125 C 7.5625 -10.847656 6.875 -10.984375 6.3125 -10.984375 C 5.3125 -10.984375 4.8125 -10.65625 4.8125 -10 C 4.8125 -9.570312 5.054688 -9.226562 5.546875 -8.96875 C 6.046875 -8.707031 6.648438 -8.484375 7.359375 -8.296875 C 8.066406 -8.109375 8.773438 -7.878906 9.484375 -7.609375 C 10.191406 -7.335938 10.789062 -6.90625 11.28125 -6.3125 C 11.769531 -5.71875 12.015625 -4.960938 12.015625 -4.046875 C 12.015625 -2.734375 11.5 -1.710938 10.46875 -0.984375 C 9.445312 -0.253906 8.144531 0.109375 6.5625 0.109375 C 5.4375 0.109375 4.320312 -0.0820312 3.21875 -0.46875 C 2.113281 -0.851562 1.148438 -1.382812 0.328125 -2.0625 L 1.671875 -4.734375 C 2.359375 -4.140625 3.171875 -3.648438 4.109375 -3.265625 C 5.046875 -2.878906 5.878906 -2.6875 6.609375 -2.6875 C 7.160156 -2.6875 7.59375 -2.785156 7.90625 -2.984375 C 8.21875 -3.191406 8.375 -3.488281 8.375 -3.875 C 8.375 -4.25 8.195312 -4.5625 7.84375 -4.8125 C 7.488281 -5.070312 7.039062 -5.265625 6.5 -5.390625 C 5.96875 -5.515625 5.390625 -5.679688 4.765625 -5.890625 C 4.148438 -6.097656 3.570312 -6.320312 3.03125 -6.5625 C 2.5 -6.8125 2.054688 -7.203125 1.703125 -7.734375 C 1.347656 -8.273438 1.171875 -8.925781 1.171875 -9.6875 C 1.171875 -10.925781 1.664062 -11.921875 2.65625 -12.671875 C 3.65625 -13.421875 4.972656 -13.796875 6.609375 -13.796875 Z M 6.609375 -13.796875" transform="translate(85.778 125.996)"/></g></g></g><g><g><g><path d="M 2.75 -1.40625 L 6.71875 -1.40625 L 6.71875 0 L 1.203125 0 L 1.203125 -9.171875 L 2.75 -9.171875 Z M 2.75 -1.40625" transform="translate(42.485 141.606)"/></g></g></g><g><g><g><path d="M 2.75 0 L 1.203125 0 L 1.203125 -9.171875 L 2.75 -9.171875 Z M 2.75 0" transform="translate(49.475 141.606)"/></g></g></g><g><g><g><path d="M 1.203125 -9.171875 L 5.1875 -9.171875 C 6.132812 -9.171875 6.882812 -8.96875 7.4375 -8.5625 C 7.988281 -8.15625 8.265625 -7.59375 8.265625 -6.875 C 8.265625 -6.363281 8.117188 -5.925781 7.828125 -5.5625 C 7.535156 -5.195312 7.144531 -4.953125 6.65625 -4.828125 C 7.257812 -4.722656 7.734375 -4.460938 8.078125 -4.046875 C 8.429688 -3.640625 8.609375 -3.128906 8.609375 -2.515625 C 8.609375 -1.722656 8.3125 -1.101562 7.71875 -0.65625 C 7.125 -0.21875 6.3125 0 5.28125 0 L 1.203125 0 Z M 2.75 -7.796875 L 2.75 -5.375 L 5.109375 -5.375 C 5.597656 -5.375 5.976562 -5.476562 6.25 -5.6875 C 6.53125 -5.90625 6.671875 -6.207031 6.671875 -6.59375 C 6.671875 -6.976562 6.535156 -7.273438 6.265625 -7.484375 C 5.992188 -7.691406 5.609375 -7.796875 5.109375 -7.796875 Z M 2.75 -4 L 2.75 -1.375 L 5.109375 -1.375 C 5.710938 -1.375 6.179688 -1.488281 6.515625 -1.71875 C 6.859375 -1.945312 7.03125 -2.273438 7.03125 -2.703125 C 7.03125 -3.109375 6.859375 -3.425781 6.515625 -3.65625 C 6.179688 -3.882812 5.710938 -4 5.109375 -4 Z M 2.75 -4" transform="translate(53.428 141.606)"/></g></g></g><g><g><g><path d="M 7.015625 0 L 5.34375 -2.78125 C 5.257812 -2.769531 5.117188 -2.765625 4.921875 -2.765625 L 2.75 -2.765625 L 2.75 0 L 1.203125 0 L 1.203125 -9.171875 L 4.921875 -9.171875 C 6.085938 -9.171875 6.992188 -8.894531 7.640625 -8.34375 C 8.285156 -7.800781 8.609375 -7.03125 8.609375 -6.03125 C 8.609375 -5.300781 8.445312 -4.679688 8.125 -4.171875 C 7.800781 -3.671875 7.332031 -3.300781 6.71875 -3.0625 L 8.765625 0 Z M 2.75 -4.15625 L 4.921875 -4.15625 C 6.410156 -4.15625 7.15625 -4.769531 7.15625 -6 C 7.15625 -7.1875 6.410156 -7.78125 4.921875 -7.78125 L 2.75 -7.78125 Z M 2.75 -4.15625" transform="translate(62.67 141.606)"/></g></g></g><g><g><g><path d="M 7.125 -2.0625 L 2.5 -2.0625 L 1.625 0 L 0.015625 0 L 4.0625 -9.171875 L 5.640625 -9.171875 L 9.65625 0 L 8 0 Z M 6.53125 -3.4375 L 4.8125 -7.515625 L 3.078125 -3.4375 Z M 6.53125 -3.4375" transform="translate(72.133 141.606)"/></g></g></g><g><g><g><path d="M 7.015625 0 L 5.34375 -2.78125 C 5.257812 -2.769531 5.117188 -2.765625 4.921875 -2.765625 L 2.75 -2.765625 L 2.75 0 L 1.203125 0 L 1.203125 -9.171875 L 4.921875 -9.171875 C 6.085938 -9.171875 6.992188 -8.894531 7.640625 -8.34375 C 8.285156 -7.800781 8.609375 -7.03125 8.609375 -6.03125 C 8.609375 -5.300781 8.445312 -4.679688 8.125 -4.171875 C 7.800781 -3.671875 7.332031 -3.300781 6.71875 -3.0625 L 8.765625 0 Z M 2.75 -4.15625 L 4.921875 -4.15625 C 6.410156 -4.15625 7.15625 -4.769531 7.15625 -6 C 7.15625 -7.1875 6.410156 -7.78125 4.921875 -7.78125 L 2.75 -7.78125 Z M 2.75 -4.15625" transform="translate(81.794 141.606)"/></g></g></g><g><g><g><path d="M 4.96875 -3.046875 L 4.96875 0 L 3.4375 0 L 3.4375 -3 L 0.015625 -9.171875 L 1.578125 -9.171875 L 4.1875 -4.703125 L 6.75 -9.171875 L 8.328125 -9.171875 Z M 4.96875 -3.046875" transform="translate(91.258 141.606)"/></g></g></g></svg>