<svg xmlns="http://www.w3.org/2000/svg" width="150" viewBox="0 0 150 150" height="150" version="1.0"><defs><clipPath id="a"><path d="M 75 34 L 126.988281 34 L 126.988281 95.507812 L 75 95.507812 Z M 75 34"/></clipPath><clipPath id="b"><path d="M 22.738281 34 L 75 34 L 75 95.507812 L 22.738281 95.507812 Z M 22.738281 34"/></clipPath><clipPath id="c"><path d="M 66 7.757812 L 83 7.757812 L 83 41 L 66 41 Z M 66 7.757812"/></clipPath></defs><g clip-path="url(#a)"><path fill="#FFF" d="M 76.976562 56.910156 C 98.179688 36.660156 120.582031 38.457031 120.582031 38.457031 C 105.449219 56.394531 98.101562 82.695312 98.101562 82.695312 C 79.679688 83.574219 75.660156 95.496094 75.660156 95.496094 C 85.019531 85.519531 102.269531 87.425781 102.269531 87.425781 C 108.558594 62.042969 126.980469 35.78125 126.980469 35.78125 C 97.882812 28.589844 76.976562 56.910156 76.976562 56.910156"/></g><path fill="#FFF" d="M 106.324219 52.875 C 88.5625 55.515625 79.023438 64.539062 79.023438 64.539062 C 89.660156 58.59375 104.902344 58.265625 104.902344 58.265625 L 106.324219 52.875"/><path fill="#FFF" d="M 101.445312 62.390625 C 87.039062 64.535156 79.296875 71.855469 79.296875 71.855469 C 87.925781 67.035156 100.292969 66.765625 100.292969 66.765625 L 101.445312 62.390625"/><path fill="#FFF" d="M 97.433594 75.945312 L 98.441406 72.128906 C 85.871094 74 79.121094 80.382812 79.121094 80.382812 C 86.652344 76.179688 97.433594 75.945312 97.433594 75.945312"/><g clip-path="url(#b)"><path fill="#FFF" d="M 51.609375 82.695312 C 51.609375 82.695312 44.261719 56.394531 29.128906 38.457031 C 29.128906 38.457031 51.535156 36.660156 72.734375 56.910156 C 72.734375 56.910156 51.828125 28.589844 22.734375 35.78125 C 22.734375 35.78125 41.15625 62.042969 47.441406 87.425781 C 47.441406 87.425781 64.691406 85.519531 74.050781 95.496094 C 74.050781 95.496094 70.03125 83.574219 51.609375 82.695312"/></g><path fill="#FFF" d="M 43.386719 52.875 L 44.8125 58.265625 C 44.8125 58.265625 60.054688 58.59375 70.6875 64.539062 C 70.6875 64.539062 61.148438 55.515625 43.386719 52.875"/><path fill="#FFF" d="M 49.417969 66.765625 C 49.417969 66.765625 61.785156 67.035156 70.414062 71.855469 C 70.414062 71.855469 62.675781 64.535156 48.265625 62.390625 L 49.417969 66.765625"/><path fill="#FFF" d="M 70.589844 80.382812 C 70.589844 80.382812 63.839844 74 51.269531 72.128906 L 52.277344 75.945312 C 52.277344 75.945312 63.0625 76.179688 70.589844 80.382812"/><path fill="#7ED957" d="M 101.234375 22.757812 C 82.34375 23.304688 80.351562 41.171875 80.351562 41.171875 C 98.882812 39.539062 101.234375 22.757812 101.234375 22.757812"/><path fill="#7ED957" d="M 69.359375 41.171875 C 69.359375 41.171875 67.371094 23.304688 48.480469 22.757812 C 48.480469 22.757812 50.832031 39.539062 69.359375 41.171875"/><g clip-path="url(#c)"><path fill="#7ED957" d="M 74.859375 7.757812 L 74.855469 7.757812 C 74.800781 7.808594 56.871094 24.539062 74.855469 40.765625 C 74.859375 40.769531 74.859375 40.769531 74.859375 40.769531 L 74.859375 40.765625 C 92.839844 24.539062 74.914062 7.808594 74.859375 7.757812"/></g><g fill="#FFF"><g><g><path d="M 14.703125 0 L 11.5625 0 L 9.328125 -8.296875 L 7.0625 0 L 3.90625 0 L -0.015625 -12.015625 L 3.25 -12.015625 L 5.59375 -3.171875 L 7.890625 -12.015625 L 10.875 -12.015625 L 13.234375 -3.171875 L 15.546875 -12.015625 L 18.671875 -12.015625 Z M 14.703125 0" transform="translate(50.962 109.83)"/></g></g></g><g fill="#FFF"><g><g><path d="M 1.203125 -12.015625 L 6.4375 -12.015625 C 7.96875 -12.015625 9.15625 -11.648438 10 -10.921875 C 10.84375 -10.191406 11.265625 -9.160156 11.265625 -7.828125 C 11.265625 -6.421875 10.84375 -5.328125 10 -4.546875 C 9.15625 -3.765625 7.96875 -3.375 6.4375 -3.375 L 4.25 -3.375 L 4.25 0 L 1.203125 0 Z M 4.25 -9.609375 L 4.25 -5.78125 L 6.28125 -5.78125 C 6.957031 -5.78125 7.476562 -5.945312 7.84375 -6.28125 C 8.207031 -6.613281 8.390625 -7.09375 8.390625 -7.71875 C 8.390625 -8.332031 8.207031 -8.800781 7.84375 -9.125 C 7.476562 -9.445312 6.957031 -9.609375 6.28125 -9.609375 Z M 4.25 -9.609375" transform="translate(72.907 109.83)"/></g></g></g><g fill="#FFF"><g><g><path d="M 5.8125 -12.140625 C 7.613281 -12.140625 9.191406 -11.695312 10.546875 -10.8125 L 9.40625 -8.421875 C 8.769531 -8.785156 8.09375 -9.082031 7.375 -9.3125 C 6.65625 -9.550781 6.050781 -9.671875 5.5625 -9.671875 C 4.675781 -9.671875 4.234375 -9.378906 4.234375 -8.796875 C 4.234375 -8.421875 4.453125 -8.117188 4.890625 -7.890625 C 5.328125 -7.660156 5.851562 -7.460938 6.46875 -7.296875 C 7.09375 -7.128906 7.71875 -6.925781 8.34375 -6.6875 C 8.96875 -6.457031 9.492188 -6.078125 9.921875 -5.546875 C 10.359375 -5.023438 10.578125 -4.363281 10.578125 -3.5625 C 10.578125 -2.40625 10.125 -1.503906 9.21875 -0.859375 C 8.320312 -0.210938 7.175781 0.109375 5.78125 0.109375 C 4.789062 0.109375 3.804688 -0.0625 2.828125 -0.40625 C 1.859375 -0.75 1.015625 -1.21875 0.296875 -1.8125 L 1.46875 -4.171875 C 2.082031 -3.640625 2.800781 -3.207031 3.625 -2.875 C 4.445312 -2.539062 5.175781 -2.375 5.8125 -2.375 C 6.300781 -2.375 6.679688 -2.460938 6.953125 -2.640625 C 7.234375 -2.816406 7.375 -3.078125 7.375 -3.421875 C 7.375 -3.742188 7.21875 -4.015625 6.90625 -4.234375 C 6.59375 -4.460938 6.203125 -4.628906 5.734375 -4.734375 C 5.265625 -4.847656 4.753906 -4.992188 4.203125 -5.171875 C 3.648438 -5.359375 3.140625 -5.5625 2.671875 -5.78125 C 2.203125 -6 1.8125 -6.34375 1.5 -6.8125 C 1.1875 -7.289062 1.03125 -7.863281 1.03125 -8.53125 C 1.03125 -9.625 1.46875 -10.5 2.34375 -11.15625 C 3.21875 -11.8125 4.375 -12.140625 5.8125 -12.140625 Z M 5.8125 -12.140625" transform="translate(87.972 109.83)"/></g></g></g><g fill="#FFF"><g><g><path d="M 2.546875 -1.296875 L 6.234375 -1.296875 L 6.234375 0 L 1.125 0 L 1.125 -8.515625 L 2.546875 -8.515625 Z M 2.546875 -1.296875" transform="translate(48.483 124.496)"/></g></g></g><g fill="#FFF"><g><g><path d="M 2.546875 0 L 1.125 0 L 1.125 -8.515625 L 2.546875 -8.515625 Z M 2.546875 0" transform="translate(54.972 124.496)"/></g></g></g><g fill="#FFF"><g><g><path d="M 1.125 -8.515625 L 4.8125 -8.515625 C 5.695312 -8.515625 6.394531 -8.320312 6.90625 -7.9375 C 7.414062 -7.5625 7.671875 -7.039062 7.671875 -6.375 C 7.671875 -5.90625 7.535156 -5.5 7.265625 -5.15625 C 7.003906 -4.820312 6.640625 -4.597656 6.171875 -4.484375 C 6.742188 -4.390625 7.191406 -4.148438 7.515625 -3.765625 C 7.835938 -3.390625 8 -2.910156 8 -2.328125 C 8 -1.597656 7.722656 -1.023438 7.171875 -0.609375 C 6.617188 -0.203125 5.863281 0 4.90625 0 L 1.125 0 Z M 2.546875 -7.234375 L 2.546875 -4.984375 L 4.734375 -4.984375 C 5.191406 -4.984375 5.550781 -5.082031 5.8125 -5.28125 C 6.070312 -5.488281 6.203125 -5.769531 6.203125 -6.125 C 6.203125 -6.476562 6.070312 -6.75 5.8125 -6.9375 C 5.5625 -7.132812 5.203125 -7.234375 4.734375 -7.234375 Z M 2.546875 -3.71875 L 2.546875 -1.28125 L 4.734375 -1.28125 C 5.304688 -1.28125 5.75 -1.382812 6.0625 -1.59375 C 6.375 -1.8125 6.53125 -2.117188 6.53125 -2.515625 C 6.53125 -2.890625 6.367188 -3.179688 6.046875 -3.390625 C 5.734375 -3.609375 5.296875 -3.71875 4.734375 -3.71875 Z M 2.546875 -3.71875" transform="translate(58.642 124.496)"/></g></g></g><g fill="#FFF"><g><g><path d="M 6.515625 0 L 4.953125 -2.578125 C 4.878906 -2.566406 4.753906 -2.5625 4.578125 -2.5625 L 2.546875 -2.5625 L 2.546875 0 L 1.125 0 L 1.125 -8.515625 L 4.578125 -8.515625 C 5.660156 -8.515625 6.5 -8.257812 7.09375 -7.75 C 7.695312 -7.238281 8 -6.523438 8 -5.609375 C 8 -4.921875 7.847656 -4.34375 7.546875 -3.875 C 7.242188 -3.40625 6.804688 -3.0625 6.234375 -2.84375 L 8.140625 0 Z M 2.546875 -3.859375 L 4.578125 -3.859375 C 5.953125 -3.859375 6.640625 -4.425781 6.640625 -5.5625 C 6.640625 -6.664062 5.953125 -7.21875 4.578125 -7.21875 L 2.546875 -7.21875 Z M 2.546875 -3.859375" transform="translate(67.222 124.496)"/></g></g></g><g fill="#FFF"><g><g><path d="M 6.609375 -1.921875 L 2.328125 -1.921875 L 1.5 0 L 0.015625 0 L 3.765625 -8.515625 L 5.234375 -8.515625 L 8.953125 0 L 7.421875 0 Z M 6.0625 -3.203125 L 4.46875 -6.984375 L 2.859375 -3.203125 Z M 6.0625 -3.203125" transform="translate(76.008 124.496)"/></g></g></g><g fill="#FFF"><g><g><path d="M 6.515625 0 L 4.953125 -2.578125 C 4.878906 -2.566406 4.753906 -2.5625 4.578125 -2.5625 L 2.546875 -2.5625 L 2.546875 0 L 1.125 0 L 1.125 -8.515625 L 4.578125 -8.515625 C 5.660156 -8.515625 6.5 -8.257812 7.09375 -7.75 C 7.695312 -7.238281 8 -6.523438 8 -5.609375 C 8 -4.921875 7.847656 -4.34375 7.546875 -3.875 C 7.242188 -3.40625 6.804688 -3.0625 6.234375 -2.84375 L 8.140625 0 Z M 2.546875 -3.859375 L 4.578125 -3.859375 C 5.953125 -3.859375 6.640625 -4.425781 6.640625 -5.5625 C 6.640625 -6.664062 5.953125 -7.21875 4.578125 -7.21875 L 2.546875 -7.21875 Z M 2.546875 -3.859375" transform="translate(84.977 124.496)"/></g></g></g><g fill="#FFF"><g><g><path d="M 4.609375 -2.828125 L 4.609375 0 L 3.1875 0 L 3.1875 -2.78125 L 0.015625 -8.515625 L 1.453125 -8.515625 L 3.890625 -4.359375 L 6.265625 -8.515625 L 7.734375 -8.515625 Z M 4.609375 -2.828125" transform="translate(93.763 124.496)"/></g></g></g></svg>